HIERARCHY
ROOT Spine
{
    OFFSET 0.0 0.0 -0.0
    CHANNELS 6 Xposition Yposition Zposition Zrotation Xrotation Yrotation
    JOINT ShoulderCenter
    {
        OFFSET 0.0 24.553037643432617 0.0
        CHANNELS 3 Zrotation Xrotation Yrotation
        JOINT LeftShoulder
        {
            OFFSET 16.703350067138672 0.0 0.0
            CHANNELS 3 Zrotation Xrotation Yrotation
            JOINT LeftElbow
            {
                OFFSET 27.274127960205078 0.0 0.0
                CHANNELS 3 Zrotation Xrotation Yrotation
                JOINT LeftHand
                {
                    OFFSET 29.084383010864258 0.0 0.0
                    CHANNELS 3 Zrotation Xrotation Yrotation
                    End Site
                    {
                        OFFSET 11.633752822875977 0.0 0.0
                    }
                }
            }
        }
        JOINT RightShoulder
        {
            OFFSET -16.703350067138672 0.0 0.0
            CHANNELS 3 Zrotation Xrotation Yrotation
            JOINT RightElbow
            {
                OFFSET -27.274127960205078 0.0 0.0
                CHANNELS 3 Zrotation Xrotation Yrotation
                JOINT RightHand
                {
                    OFFSET -29.084383010864258 0.0 0.0
                    CHANNELS 3 Zrotation Xrotation Yrotation
                    End Site
                    {
                        OFFSET -11.633752822875977 0.0 0.0
                    }
                }
            }
        }
        End Site
        {
            OFFSET 0.0 9.821213722229004 0.0
        }
    }
    JOINT LeftHip
    {
        OFFSET 22.047394091811324 -22.047394091811324 0.0
        CHANNELS 3 Zrotation Xrotation Yrotation
        JOINT LeftKnee
        {
            OFFSET 0.0 -35.79312515258789 0.0
            CHANNELS 3 Zrotation Xrotation Yrotation
            JOINT LeftFoot
            {
                OFFSET 0.0 -44.47649383544922 0.0
                CHANNELS 3 Zrotation Xrotation Yrotation
                End Site
                {
                    OFFSET 0.0 0.0 17.790599822998047
                }
            }
        }
    }
    JOINT RightHip
    {
        OFFSET -22.047394091811324 -22.047394091811324 0.0
        CHANNELS 3 Zrotation Xrotation Yrotation
        JOINT RightKnee
        {
            OFFSET 0.0 -35.79312515258789 0.0
            CHANNELS 3 Zrotation Xrotation Yrotation
            JOINT RightFoot
            {
                OFFSET 0.0 -44.47649383544922 0.0
                CHANNELS 3 Zrotation Xrotation Yrotation
                End Site
                {
                    OFFSET 0.0 0.0 17.790599822998047
                }
            }
        }
    }
}
MOTION
Frames: 13
Frame Time: 0.03333333333333333
12.804730415344238 1.230605959892273 -318.5517883300781 -1.2850166763597601 55.951154930695886 -15.325386747140936 -5.189019335717492e-07 6.5068443063389865e-06 -179.06451478308554 -70.40688748939819 -15.602709777792766 45.94564033395559 -2.9774047982575847e-06 -2.961877264482357e-07 22.400784540046363 -1.5902773407317584e-15 -1.5902773407317584e-15 -2.2069531490250793e-32 -21.323398061394272 -38.63090928747715 -86.04731455521534 -8.310128134034336e-07 1.2617904969448681e-07 -24.485292319829135 -6.3611093629270335e-15 0.0 0.0 -7.33901023150517 -80.44527807263766 63.9433437995906 46.46075111487103 14.36589335732351 -23.42502761305217 1.9878466759146972e-16 3.1805546814635168e-15 2.236327510404035e-15 -168.81131881283224 -69.27167349145166 116.79983839174977 -31.20585750732619 38.75139025740469 11.287444168959611 -8.827812596100317e-32 1.5902773407317588e-15 6.361109362927035e-15
12.796839714050293 1.1660659313201904 -318.6510009765625 -1.11337014091948 56.901420233848455 -20.91530275446322 1.7199849876814868e-06 -4.97784978514914e-06 -174.08268413738708 -79.94333686982232 -7.308335049998392 45.41871106933345 2.611714826881303e-07 9.723066639159185e-07 19.57004413508311 2.652532908173675e-15 -9.93923337957349e-17 -9.93923337957349e-17 -18.838808929616143 -39.817847184488386 -83.91610774444855 2.3379471689861883e-06 -1.7113172041422577e-06 -25.713966400442537 6.3611093629270335e-15 6.3611093629270335e-15 6.3611093629270335e-15 18.845471339389064 -76.66805901462277 90.18685354463925 33.16980197225718 6.841725162373406 -8.150212549022887 2.3854160110976376e-15 1.5902773407317582e-15 -6.311413196029166e-15 177.98272317581942 -66.47177059414963 104.73920413089245 -32.54475765765384 40.56781404918124 8.790279007662697 0.0 0.0 7.951386703658792e-16
12.63528060913086 1.1821670532226562 -318.9009094238281 -0.3559326184644711 58.00822538581876 -5.461366796691927 3.074113907176484e-07 -1.22136284093629e-06 170.99355060190283 -86.26586116883831 -0.32214956024698566 46.70838984711858 -2.2644592538911538e-07 2.401204431333464e-06 17.26037108838779 -8.38622816401513e-15 0.0 0.0 -11.163607224047851 -41.21207970244381 -83.88168426421596 3.179312244970631e-08 2.4640117612518096e-06 -19.412104805537812 3.531125038440127e-31 -6.361109362927032e-15 6.361109362927032e-15 -48.148928025969596 -77.0798966695972 25.575835730637916 34.81018450492078 6.397952391449743 -5.531775168761944 -7.951386703658792e-16 9.93923337957349e-17 -1.3666445896913548e-15 -150.12153446475108 -61.09471878276032 139.94180277996023 -33.15512932599366 40.78484520722082 9.356865051576083 0.0 0.0 -1.9878466759146976e-15
12.549710273742676 1.1341160535812378 -319.3329162597656 0.02972404952716614 58.84140284495455 -9.220902575178306 -2.2735645466204693e-07 1.5817625799834617e-06 174.66296523858287 -91.06847159558849 3.7597529965542815 48.03565339709971 3.888930830360113e-06 -7.183485529954737e-06 14.286124736499117 6.460501696722768e-16 1.5902773407317582e-15 7.951386703658791e-16 8.910902120415077 -41.966008326839216 -74.43747231541855 4.671648720469582e-07 1.143513256148329e-06 -12.702751581643687 6.361109362927032e-15 9.541664044390547e-15 -5.29668755766019e-31 -40.46388443062849 -78.56764692735906 32.291520587831315 33.59072528285105 5.602698940214725 -4.8534164676360945 3.975693351829396e-16 8.793328953146801e-33 2.53450451179124e-15 -163.6686239342954 -60.4867281351861 126.31643237705022 -65.7314786784007 52.86907866678099 36.15967808621523 -1.5902773407317588e-15 -1.5902773407317588e-15 -8.746525374024672e-15
12.423639297485352 1.1124470233917236 -319.5639953613281 0.3613172582522448 59.477546159064545 -10.01435864904293 -3.0003211199345355e-07 3.1739235692740165e-06 176.75154261665972 -51.00183392245933 -26.38474097637568 56.73492381898229 -2.742653579723524e-07 4.026826131326532e-06 10.441261850525793 3.1805546814635168e-15 0.0 0.0 5.692001375661706 -44.61754441860867 -73.1086136998434 -6.987745023611666e-06 -3.3463214808323323e-06 -21.247656551614202 3.531125038440127e-31 6.3611093629270335e-15 -6.3611093629270335e-15 -19.70817244077066 -72.50459130884147 51.7493796654249 22.866928713870152 3.676747088668161 -2.937723936634303 1.987846675914698e-15 -7.500192342389918e-32 -4.3235665201144685e-15 -166.10064425038746 -59.58892663426744 124.01599489698869 -63.91683293842972 50.072105524340564 32.67757068930974 -1.5902773407317584e-15 -5.793252016190833e-32 4.174478019420866e-15
10.95930004119873 1.8257750272750854 -319.4834899902344 3.381140961147446 59.41556419178145 -7.924609002946814 5.640446053232157e-07 4.46884577071892e-06 172.9280857653102 0.5470149055303085 -38.35944855312423 86.09670103832359 8.966712561787077e-08 -2.7887232500104396e-06 9.22388233995273 3.1805546814635168e-15 1.7655625192200634e-31 6.3611093629270335e-15 -43.34733520579718 -44.117512223731055 -110.85598168507937 -3.164533856934548e-06 -5.968198368697411e-06 -27.63129877129031 0.0 -7.951386703658792e-16 0.0 -31.952018267668123 -75.8918775745251 40.583289371141916 25.1208692032446 9.008914229758753 -6.87735934647102 0.0 0.0 -1.3914926731402886e-15 -160.66908500418094 -58.927955979219306 130.29280771390953 -59.79316540932253 43.19546685838547 28.62294159157947 -1.5902773407317584e-15 -1.5902773407317584e-15 -2.1866313435061676e-15
10.9370698928833 1.4762160778045654 -319.3429870605469 2.1549243049947657 60.423450650172114 -10.104660977216701 -2.2785314233021808e-07 -2.4707957480074793e-06 176.80722600663492 -54.363239455864566 -21.984019978183316 56.05255344388905 -2.6865072640460275e-06 8.698152729051174e-06 5.414225308105455 -1.5902773407317584e-15 -3.1805546814635168e-15 -4.4139062980501586e-32 25.82100626889856 -48.52109358997836 -60.008851897522604 2.056232791335293e-06 -7.921056341795739e-06 -18.58584069095404 3.1805546814635176e-15 6.3611093629270335e-15 -1.2722218725854067e-14 -17.628476223418595 -75.78441024172528 54.10990869949388 22.49111289831012 7.704857261755215 -6.078666877691164 -7.951386703658792e-16 -3.724233438979821e-32 5.367186024969684e-15 -165.28867276388814 -58.78583570595116 124.48378950428543 -64.65551493493236 43.40383113933474 32.444361353123504 1.5902773407317584e-15 2.4828222926532145e-32 1.7890620083232284e-15
11.031970024108887 1.820335865020752 -319.32061767578125 1.891721728922677 61.09747208378081 -12.218669366025692 -2.75148773123477e-07 -3.2903879335274813e-06 179.56873022199684 -20.303914165348406 -36.07213464525205 69.28729452272525 -2.7477806008666927e-06 8.770596282252397e-06 13.164772751673633 9.54166404439055e-15 -5.29668755766019e-31 -6.3611093629270335e-15 5.606830551911583 -55.77449984529333 -75.95044010744752 6.528316599348282e-07 -8.557450911940994e-07 -17.582183246785693 0.0 -3.1805546814635168e-15 0.0 -13.712237343025528 -78.42320147583472 58.08071132645026 24.49874714636166 6.934564979889375 -5.218726672864595 -7.951386703658792e-16 -1.5902773407317584e-15 -2.4848083448933726e-15 -167.7992180577121 -60.29684308010283 122.75215991762026 -66.88082102524588 43.908174226300254 33.95240022876852 -7.951386703658792e-16 1.5902773407317584e-15 -3.975693351829396e-16
11.884869575500488 1.9152240753173828 -318.6083068847656 2.7033097814977354 60.02207918480821 -15.397774544277654 -2.5608281927578076e-07 3.68146132175793e-07 179.77733249895186 -73.96903697721133 -11.065387294216443 48.23696413257305 5.935207928827226e-07 2.663356452995284e-06 10.971760337629485 1.1927080055488186e-15 -1.5902773407317582e-15 7.951386703658791e-16 35.538593449385445 -51.34657054548432 -49.186892699568794 3.967564106012421e-06 7.103749256470516e-07 -18.319963069185118 3.1805546814635168e-15 0.0 0.0 -12.692008592657043 -72.86356076604056 55.77927562342643 20.011574546178473 4.720174874842428 -3.887224486945488 0.0 0.0 -1.6896696745274936e-15 -161.28776756848976 -61.45335793178554 126.17232616127382 -72.91418375822695 42.97048554406037 43.88282610268085 1.5902773407317588e-15 3.975693351829397e-16 -1.6896696745274936e-15
12.74290943145752 2.277853012084961 -318.28338623046875 4.390696140622515 58.92616373316487 -15.241941883422491 4.111843234247548e-07 -1.5979777942957285e-06 -179.7073509014916 -45.6478508469114 -25.972020106417254 57.237508931928126 -8.548391582122845e-07 -1.4573555842147303e-06 7.749558499330414 1.5902773407317584e-15 0.0 0.0 47.768598827270154 -49.00202763625423 -40.31063232627119 -6.654408249980766e-06 -1.6184687584996755e-06 -18.21271969402074 3.1805546814635168e-15 3.1805546814635168e-15 6.3611093629270335e-15 -19.20609296197314 -70.70471492689644 49.27975874116532 18.924796610063137 4.63325674911167 -3.7513515602443612 7.951386703658791e-16 3.9756933518293955e-16 8.94531004161614e-16 -149.04007388013574 -61.57525679909211 137.55398808540858 -83.77527558904553 34.49101404604821 56.342863869582786 -8.551943452472182e-32 3.1805546814635164e-15 3.0811623476677814e-15
12.645310401916504 1.196658968925476 -316.7996826171875 2.9642230223386026 54.55411857175316 -25.39687876258334 1.2056927556514603e-06 2.2626953233412997e-06 -168.00957588676198 -38.51974924027718 -33.11924062060857 57.01006935633071 -1.5790837048927865e-06 1.986788385963731e-06 8.757926415725894 -1.5902773407317582e-15 -1.3241718894150476e-31 9.541664044390549e-15 60.76107768519785 -43.4160554398931 -28.11621905563446 -9.530377565663447e-07 7.086355159023636e-06 -13.37025203478284 1.5902773407317584e-15 -8.827812596100317e-32 -6.3611093629270335e-15 0.7328445131176125 -56.975141738047526 64.4021365390983 9.598747092443674 -1.7841167655021577 2.161358209139779 0.0 0.0 -2.1866313435061676e-15 -157.99251663181502 -73.44118982808926 125.2931815833652 -78.25890148264288 32.93592672845268 64.00826284046859 7.951386703658792e-16 1.5862475758617757e-32 2.2860236773019026e-15
12.406759262084961 2.16656494140625 -316.5906066894531 2.8771548386532575 52.12532287613916 -12.07307668198142 -8.713693658590832e-09 2.9784831895893725e-07 179.9475856587615 2.621574124035166 -46.9585861761699 80.68261747511674 -4.2857850588237865e-06 1.9428063245234895e-07 11.408335947711786 6.3611093629270335e-15 0.0 0.0 67.35505015685929 -40.14510863789872 -20.182520592096502 -3.554051806449126e-06 1.3340992059891874e-06 -16.964209784360907 7.951386703658793e-15 -4.413906298050159e-31 -6.361109362927035e-15 -14.216382888276492 -56.45958607361215 52.80028578683502 10.55934551271494 1.1522545774617141 -1.1008690451528886 7.951386703658792e-16 1.5902773407317584e-15 -1.7890620083232284e-15 -58.04310125753702 -71.56679089157764 -134.49142707313968 -40.89494554963739 26.4143536255944 36.82376162444979 4.0001025826079564e-32 1.5902773407317588e-15 -2.882377680076313e-15
12.20697021484375 2.750688076019287 -315.25579833984375 1.3380270272035517 49.92911703927802 -12.747109254445261 -3.62972444944662e-07 -1.3430387398598402e-06 -176.57178575150604 -10.323951333029324 -47.08920339571476 66.58402463454824 3.5739137703388594e-07 -9.743737704324898e-07 15.754791229652632 -3.1805546814635164e-15 -6.3611093629270335e-15 6.3611093629270335e-15 49.41764184110124 -61.26492878215997 -28.69073204386078 -1.2269792358718775e-06 7.057843890534301e-07 -18.25971465491412 1.7655625192200634e-31 -3.1805546814635176e-15 6.361109362927035e-15 -9.705417215703289 -48.31595362254089 52.69259036791185 5.48823060672597 -1.0135395303167467 1.1488676455380271 0.0 0.0 -1.987846675914698e-16 -41.73468695464313 -68.1620563348858 -118.99978776155687 -37.13934122032367 23.727263510645855 39.110479934455995 7.951386703658792e-16 5.517382872562698e-33 7.951386703658792e-16
